<svg width="400" height="300" viewBox="0 0 800 600" fill="none" xmlns="http://www.w3.org/2000/svg" data-reactroot="">
<path d="M350.541 186.485C348.522 185.709 349.765 182.448 351.783 183.224C353.802 184.156 352.56 187.261 350.541 186.485Z" fill="#C4B6FF"></path>
<path d="M351.939 204.186C349.299 203.099 351.007 198.907 353.647 199.994C356.287 201.081 354.579 205.273 351.939 204.186Z" fill="#C4B6FF"></path>
<path d="M372.205 234.849C369.565 233.762 371.274 229.569 373.913 230.656C376.553 231.743 374.845 235.936 372.205 234.849Z" fill="#C4B6FF"></path>
<path d="M363.274 150.613C361.256 149.837 362.498 146.576 364.517 147.352C366.535 148.284 365.293 151.389 363.274 150.613Z" fill="#C4B6FF"></path>
<path d="M358.464 220.494C355.824 219.407 357.532 215.214 360.172 216.301C362.812 217.388 361.104 221.581 358.464 220.494Z" fill="#C4B6FF"></path>
<path d="M350.541 176.857C348.522 176.081 349.765 172.82 351.783 173.596C353.802 174.528 352.56 177.634 350.541 176.857Z" fill="#C4B6FF"></path>
<path d="M373.213 209.935C370.573 208.848 372.281 204.655 374.921 205.742C377.561 206.829 375.853 211.022 373.213 209.935Z" fill="#C4B6FF"></path>
<path d="M378.648 150.613C376.629 149.837 377.871 146.576 379.89 147.352C381.909 148.284 380.667 151.389 378.648 150.613Z" fill="#C4B6FF"></path>
<path d="M353.802 165.366C351.783 164.589 353.025 161.328 355.044 162.105C357.218 163.037 355.976 166.298 353.802 165.366Z" fill="#C4B6FF"></path>
<path d="M364.981 169.095C362.963 168.319 364.205 165.058 366.224 165.834C368.242 166.611 367 169.872 364.981 169.095Z" fill="#C4B6FF"></path>
<path d="M363.274 184.313C361.256 183.537 362.498 180.276 364.517 181.052C366.535 181.984 365.293 185.09 363.274 184.313Z" fill="#C4B6FF"></path>
<path d="M366.69 199.221C364.05 198.134 365.758 193.941 368.398 195.028C371.038 196.115 369.33 200.308 366.69 199.221Z" fill="#C4B6FF"></path>
<path opacity="0.81" d="M265.136 177.79H74.1348V184.778H265.136V177.79Z" fill="#C4B6FF"></path>
<path opacity="0.81" d="M265.136 198.598H74.1348V205.586H265.136V198.598Z" fill="#C4B6FF"></path>
<path opacity="0.81" d="M265.133 219.405H135.625V226.393H265.133V219.405Z" fill="#C4B6FF"></path>
<path opacity="0.81" d="M265.133 240.369H135.625V247.357H265.133V240.369Z" fill="#C4B6FF"></path>
<path opacity="0.81" d="M265.133 261.177H194.168V268.165H265.133V261.177Z" fill="#C4B6FF"></path>
<path opacity="0.81" d="M265.133 282.141H194.168V289.128H265.133V282.141Z" fill="#C4B6FF"></path>
<path opacity="0.81" d="M265.134 302.95H158.453V309.938H265.134V302.95Z" fill="#C4B6FF"></path>
<path opacity="0.81" d="M265.134 323.914H158.453V330.902H265.134V323.914Z" fill="#C4B6FF"></path>
<path opacity="0.81" d="M265.134 344.724H158.453V351.711H265.134V344.724Z" fill="#C4B6FF"></path>
<path opacity="0.81" d="M265.134 365.688H158.453V372.675H265.134V365.688Z" fill="#C4B6FF"></path>
<path opacity="0.81" d="M265.134 386.493H158.453V393.481H265.134V386.493Z" fill="#C4B6FF"></path>
<path d="M289.67 469.105L288.273 468.794C205.971 447.676 122.428 447.676 40.1266 468.794L38.729 469.105V77.1644L39.3501 76.8538C122.117 46.1073 206.127 46.1073 288.894 76.8538L289.67 77.1644V469.105ZM164.2 450.626C205.35 450.626 246.501 455.75 287.496 466.155V78.8725C205.661 48.5919 122.894 48.5919 41.0583 78.8725V466.155C81.7431 455.906 122.894 450.626 164.2 450.626Z" fill="#2F5373"></path>
<path d="M538.44 469.105L537.042 468.794C454.741 447.676 371.197 447.676 288.896 468.794L287.499 469.105V77.1644L288.275 76.8538C371.042 46.1073 455.052 46.1073 537.819 76.8538L538.595 77.1644V167.385C538.595 168.006 538.129 168.628 537.353 168.628C536.576 168.628 536.111 168.162 536.111 167.385V78.7173C454.275 48.4366 371.508 48.4366 289.673 78.7173V465.999C371.508 445.346 454.275 445.346 536.111 465.999V199.84C536.111 199.219 536.576 198.598 537.353 198.598C538.129 198.598 538.595 199.064 538.595 199.84V469.105H538.44Z" fill="#2F5373"></path>
<path d="M10 500.161V108.221L10.7764 107.91C20.2488 104.339 29.8765 101.233 39.349 98.438C39.9701 98.2827 40.5912 98.5933 40.7465 99.2144C40.9018 99.8356 40.5912 100.457 39.9701 100.612C30.8083 103.252 21.4911 106.358 12.3293 109.774V497.056C94.6306 476.248 178.019 476.403 260.165 497.366C260.786 497.522 261.097 498.143 260.941 498.764C260.786 499.385 260.165 499.696 259.544 499.54C177.242 478.421 93.6989 478.421 11.3976 499.54L10 500.161Z" fill="#2F5373"></path>
<path d="M565.768 168.627C565.147 168.627 564.526 168.161 564.526 167.385V109.774C555.364 106.358 546.047 103.252 536.885 100.612C536.264 100.457 535.954 99.8356 536.109 99.2144C536.264 98.5933 536.885 98.2827 537.506 98.438C546.979 101.233 556.607 104.339 566.079 107.91L566.855 108.221V167.385C567.011 168.006 566.39 168.627 565.768 168.627Z" fill="#2F5373"></path>
<path d="M567.008 500.162L565.61 499.851C483.309 478.733 399.765 478.733 317.464 499.851C316.843 500.007 316.222 499.696 316.066 499.075C315.911 498.454 316.222 497.833 316.843 497.677C399.144 476.714 482.532 476.559 564.678 497.367V199.84C564.678 199.219 565.144 198.598 565.921 198.598C566.697 198.598 567.163 199.063 567.163 199.84V500.162H567.008Z" fill="#2F5373"></path>
<path d="M138.578 494.883C138.578 502.958 69.0098 502.958 69.0098 494.883V341.461H138.578V494.883Z" fill="#C4B6FF"></path>
<path d="M138.575 341.459V494.881C138.575 498.919 121.183 500.937 103.791 500.937C86.3995 500.937 69.0075 498.919 69.0075 494.881V341.459H138.575ZM138.575 339.13H69.0075C67.7652 339.13 66.6782 340.217 66.6782 341.459V494.881C66.6782 498.297 70.5604 500.316 79.5669 501.714C85.9336 502.645 94.6296 503.267 103.791 503.267C112.953 503.267 121.649 502.645 128.016 501.714C137.023 500.316 140.905 498.297 140.905 494.881V341.459C140.905 340.062 139.818 339.13 138.575 339.13Z" fill="#2F5373"></path>
<path d="M90.5952 306.524L103.794 286.492L116.994 306.524H90.5952Z" fill="#7D55FF"></path>
<path d="M103.792 286.492L138.576 338.979H69.0076L103.792 286.492ZM103.792 284.163C103.015 284.163 102.239 284.629 101.773 285.25L67.1442 337.737C66.6783 338.513 66.6783 339.445 66.9889 340.066C67.4548 340.842 68.2312 341.308 69.0076 341.308H138.576C139.507 341.308 140.284 340.842 140.594 340.066C141.06 339.289 140.905 338.358 140.439 337.737L105.655 285.25C105.344 284.629 104.568 284.163 103.792 284.163Z" fill="#2F5373"></path>
<path d="M138.578 525.32V547.216C138.578 552.651 131.9 557.154 123.515 557.154H84.0725C75.8423 557.154 69.0098 552.806 69.0098 547.216V525.32C91.2156 530.6 114.353 530.755 138.578 525.32Z" fill="#7D55FF"></path>
<path d="M134.695 518.489C114.198 522.527 93.5446 522.527 73.0469 518.489C69.4753 518.489 66.5249 515.539 66.5249 511.967C66.5249 508.396 69.4753 505.445 73.0469 505.445C93.5446 510.88 114.198 510.88 134.695 505.445C138.267 505.445 141.217 508.396 141.217 511.967C141.062 515.539 138.267 518.489 134.695 518.489Z" fill="#7D55FF"></path>
<path opacity="0.81" d="M111.867 149.065H82.3623C82.3623 141.766 76.4615 135.866 69.1631 135.866V106.361C76.4615 106.361 82.3623 100.461 82.3623 93.1621H111.867C111.867 100.461 117.767 106.361 125.066 106.361V135.866C117.767 135.866 111.867 141.766 111.867 149.065Z" fill="#B5CDFB"></path>
<path d="M113.732 89.589C113.732 97.8192 120.409 104.496 128.639 104.496V137.728C120.409 137.728 113.732 144.405 113.732 152.635H80.5008C80.5008 144.405 73.8236 137.728 65.5934 137.728V104.496C73.8236 104.496 80.5008 97.8192 80.5008 89.589H113.732ZM113.732 87.2598H80.5008C79.2586 87.2598 78.1716 88.3468 78.1716 89.589C78.1716 96.5769 72.5813 102.167 65.5934 102.167C64.3512 102.167 63.2642 103.254 63.2642 104.496V137.728C63.2642 138.97 64.3512 140.057 65.5934 140.057C72.5813 140.057 78.1716 145.647 78.1716 152.635C78.1716 153.877 79.2586 154.964 80.5008 154.964H113.732C114.974 154.964 116.061 153.877 116.061 152.635C116.061 145.647 121.651 140.057 128.639 140.057C129.882 140.057 130.969 138.97 130.969 137.728V104.496C130.969 103.254 129.882 102.167 128.639 102.167C121.651 102.167 116.061 96.5769 116.061 89.589C116.061 88.1915 114.974 87.2598 113.732 87.2598Z" fill="#2F5373"></path>
<path d="M265.292 104.649H142.306V118.625H265.292V104.649Z" fill="#C4B6FF"></path>
<path d="M265.292 128.1H142.306V135.087H265.292V128.1Z" fill="#C4B6FF"></path>
<path d="M118.079 307.766H89.5064C88.8853 307.766 88.2642 307.3 88.2642 306.524C88.2642 305.747 88.73 305.281 89.5064 305.281H118.079C118.7 305.281 119.321 305.747 119.321 306.524C119.321 307.3 118.7 307.766 118.079 307.766Z" fill="#2F5373"></path>
<path d="M388.743 257.916H327.094V264.593H388.743V257.916Z" fill="#C4B6FF"></path>
<path d="M422.595 267.857H327.094V274.535H422.595V267.857Z" fill="#C4B6FF"></path>
<path opacity="0.81" d="M406.91 289.597H327.403V301.398H406.91V289.597Z" fill="#B5CDFB"></path>
<path opacity="0.81" d="M406.91 309.162H327.403V320.964H406.91V309.162Z" fill="#B5CDFB"></path>
<path opacity="0.81" d="M406.91 328.728H327.403V340.529H406.91V328.728Z" fill="#B5CDFB"></path>
<path opacity="0.81" d="M501.013 289.597H421.507V301.398H501.013V289.597Z" fill="#B5CDFB"></path>
<path opacity="0.81" d="M501.013 309.162H421.507V320.964H501.013V309.162Z" fill="#B5CDFB"></path>
<path opacity="0.81" d="M501.013 328.728H421.507V340.529H501.013V328.728Z" fill="#B5CDFB"></path>
<path d="M370.886 218.167C370.886 218.167 383.774 198.135 398.061 198.135C405.359 198.135 407.844 208.384 413.279 209.005C418.714 209.626 426.478 213.197 431.913 222.049C437.348 230.9 437.659 234.006 437.659 234.006C437.659 234.006 405.98 247.826 382.843 229.037L370.886 218.167Z" fill="#C4B6FF"></path>
<path d="M407.84 179.807C407.84 179.807 408.15 194.404 401.473 199.063C401.473 199.063 412.033 217.076 413.275 215.833C414.517 214.591 427.25 192.075 424.921 185.398C422.747 179.031 407.84 179.807 407.84 179.807Z" fill="#AC8457"></path>
<path d="M414.053 131.049C443.713 131.049 467.782 155.118 467.782 184.778C467.782 214.437 443.713 238.351 414.053 238.351C384.394 238.351 360.324 214.282 360.324 184.622C360.324 154.963 384.394 131.049 414.053 131.049ZM414.053 128.72C383.151 128.72 357.995 153.876 357.995 184.778C357.995 215.68 383.151 240.836 414.053 240.836C444.955 240.836 470.111 215.68 470.111 184.778C470.111 153.876 444.955 128.72 414.053 128.72Z" fill="#2F5373"></path>
<path d="M422.75 150.616C413.744 150.616 406.601 157.915 406.601 166.766C406.601 174.375 411.88 180.897 419.179 182.605L418.092 187.729L430.825 190.99C431.602 191.146 432.378 190.99 432.999 190.525C435.018 188.816 437.347 182.294 438.279 178.568C439.987 171.735 439.211 166.766 439.211 166.766C438.9 157.915 431.757 150.616 422.75 150.616Z" fill="#AC8457"></path>
<path d="M440.452 149.993C440.452 146.266 437.502 143.316 433.775 143.316C433.154 143.316 432.533 143.471 431.912 143.626C430.669 142.073 428.806 140.986 426.632 140.986C423.992 140.986 421.818 142.384 420.731 144.558H420.576C419.334 143.005 417.47 141.918 415.296 141.918C413.277 141.918 411.414 142.85 410.172 144.403C409.395 144.092 408.619 143.937 407.842 143.937C404.271 143.937 401.476 146.577 401.165 150.148C397.438 150.148 394.488 153.099 394.488 156.825C394.488 156.981 394.488 157.136 394.488 157.291C392.003 158.223 390.14 160.708 390.14 163.503C390.14 164.59 390.45 165.677 390.916 166.608C389.053 167.851 387.655 169.869 387.655 172.354C387.655 174.994 389.208 177.323 391.537 178.41C391.537 178.565 391.537 178.876 391.537 179.031C391.537 182.758 394.488 185.709 398.215 185.709C398.681 185.709 399.146 185.709 399.612 185.553C400.855 187.106 402.718 188.193 404.892 188.193C406.6 188.193 408.153 187.572 409.395 186.485C410.638 188.038 412.501 188.97 414.52 188.97C418.247 188.97 421.197 186.019 421.197 182.292C421.197 181.982 421.197 181.826 421.042 181.516C422.439 180.274 423.371 178.41 423.371 176.391C423.371 175.304 423.06 174.373 422.75 173.596C423.992 172.354 424.769 170.646 424.769 168.782C424.769 167.851 424.613 166.919 424.147 166.143C424.303 165.832 424.613 165.521 424.769 165.211C425.545 165.521 426.321 165.677 427.098 165.677C429.582 165.677 431.756 164.279 432.999 162.26C433.154 162.26 433.309 162.26 433.464 162.26C437.191 162.26 440.142 159.31 440.142 155.583C440.142 154.807 439.986 154.186 439.831 153.409C440.142 152.322 440.452 151.235 440.452 149.993Z" fill="#2F5373"></path>
<path d="M425.079 189.591L417.936 187.728L421.818 199.529C421.973 199.529 424.923 193.473 425.079 189.591Z" fill="#964D17"></path>
<path d="M438.124 170.804C438.124 170.804 440.609 176.239 441.075 177.015C441.541 177.792 439.988 179.966 438.435 179.5C436.882 178.879 435.174 178.102 435.174 178.102L438.124 170.804Z" fill="#AC8457"></path>
<path d="M90.5934 338.977H88.2642V473.143H90.5934V338.977Z" fill="#2F5373"></path>
<path d="M118.236 367.548H115.906V501.715H118.236V367.548Z" fill="#2F5373"></path>
<path opacity="0.81" d="M740.619 320.342H633.938V327.33H740.619V320.342Z" fill="#B5CDFB"></path>
<path opacity="0.81" d="M740.619 341.304H633.938V348.292H740.619V341.304Z" fill="#B5CDFB"></path>
<path opacity="0.81" d="M740.619 362.113H633.938V369.101H740.619V362.113Z" fill="#B5CDFB"></path>
<path opacity="0.81" d="M740.619 383.077H633.938V390.065H740.619V383.077Z" fill="#B5CDFB"></path>
<path opacity="0.81" d="M740.619 403.887H633.938V410.875H740.619V403.887Z" fill="#B5CDFB"></path>
<path d="M382.529 426.248H359.391C357.683 426.248 356.286 424.85 356.286 423.142C356.286 421.434 357.683 420.036 359.391 420.036H382.529C384.237 420.036 385.635 421.434 385.635 423.142C385.635 424.85 384.237 426.248 382.529 426.248Z" fill="#7D55FF"></path>
<path d="M468.559 426.248H445.421C443.713 426.248 442.315 424.85 442.315 423.142C442.315 421.434 443.713 420.036 445.421 420.036H468.559C470.267 420.036 471.664 421.434 471.664 423.142C471.664 424.85 470.267 426.248 468.559 426.248Z" fill="#7D55FF"></path>
<path d="M425.547 415.843H402.409C400.701 415.843 399.304 414.446 399.304 412.738C399.304 411.029 400.701 409.632 402.409 409.632H425.547C427.255 409.632 428.653 411.029 428.653 412.738C428.653 414.446 427.255 415.843 425.547 415.843Z" fill="#7D55FF"></path>
<path d="M408.619 379.041V396.433L413.588 391.464L419.178 396.899V379.041H408.619Z" fill="#C4B6FF"></path>
<path d="M451.788 389.444V406.836L456.912 401.712L462.347 407.302V389.444H451.788Z" fill="#C4B6FF"></path>
<path d="M365.605 389.444V406.836L370.729 401.712L376.32 407.302V389.444H365.605Z" fill="#C4B6FF"></path>
<path d="M375.387 387.269H366.691C366.691 385.095 364.983 383.387 362.809 383.387V374.691C364.983 374.691 366.691 372.983 366.691 370.809H375.387C375.387 372.983 377.095 374.691 379.269 374.691V383.387C377.095 383.387 375.387 385.095 375.387 387.269Z" fill="#7D55FF"></path>
<path d="M376.475 368.637C376.475 371.277 378.649 373.606 381.444 373.606V384.476C378.804 384.476 376.475 386.65 376.475 389.445H365.605C365.605 386.805 363.431 384.476 360.635 384.476V373.606C363.275 373.606 365.605 371.432 365.605 368.637H376.475ZM376.475 366.308H365.605C364.362 366.308 363.275 367.395 363.275 368.637C363.275 370.034 362.188 371.277 360.635 371.277C359.393 371.277 358.306 372.364 358.306 373.606V384.476C358.306 385.718 359.393 386.805 360.635 386.805C362.033 386.805 363.275 387.892 363.275 389.445C363.275 390.687 364.362 391.774 365.605 391.774H376.475C377.717 391.774 378.804 390.687 378.804 389.445C378.804 388.048 379.891 386.805 381.444 386.805C382.686 386.805 383.773 385.718 383.773 384.476V373.606C383.773 372.364 382.686 371.277 381.444 371.277C380.046 371.277 378.804 370.19 378.804 368.637C378.804 367.395 377.717 366.308 376.475 366.308Z" fill="#2F5373"></path>
<path d="M418.401 377.023H409.705C409.705 374.849 407.997 373.141 405.823 373.141V364.445C407.997 364.445 409.705 362.736 409.705 360.562H418.401C418.401 362.736 420.109 364.445 422.283 364.445V373.141C420.109 373.141 418.401 374.849 418.401 377.023Z" fill="#7D55FF"></path>
<path d="M419.488 358.386C419.488 361.026 421.662 363.355 424.457 363.355V374.225C421.817 374.225 419.488 376.399 419.488 379.194H408.618C408.618 376.554 406.444 374.225 403.649 374.225V363.355C406.289 363.355 408.618 361.181 408.618 358.386H419.488ZM419.488 356.057H408.618C407.376 356.057 406.289 357.144 406.289 358.386C406.289 359.783 405.202 361.026 403.649 361.026C402.407 361.026 401.32 362.113 401.32 363.355V374.225C401.32 375.467 402.407 376.554 403.649 376.554C405.047 376.554 406.289 377.641 406.289 379.194C406.289 380.436 407.376 381.523 408.618 381.523H419.488C420.73 381.523 421.817 380.436 421.817 379.194C421.817 377.796 422.904 376.554 424.457 376.554C425.7 376.554 426.787 375.467 426.787 374.225V363.355C426.787 362.113 425.7 361.026 424.457 361.026C423.06 361.026 421.817 359.939 421.817 358.386C421.817 356.988 420.73 356.057 419.488 356.057Z" fill="#2F5373"></path>
<path d="M461.415 387.269H452.719C452.719 385.095 451.01 383.387 448.836 383.387V374.691C451.01 374.691 452.719 372.983 452.719 370.809H461.415C461.415 372.983 463.123 374.691 465.297 374.691V383.387C463.278 383.387 461.415 385.095 461.415 387.269Z" fill="#7D55FF"></path>
<path d="M462.502 368.637C462.502 371.277 464.676 373.606 467.471 373.606V384.476C464.831 384.476 462.502 386.65 462.502 389.445H451.632C451.632 386.805 449.458 384.476 446.663 384.476V373.606C449.303 373.606 451.632 371.432 451.632 368.637H462.502ZM462.502 366.308H451.632C450.39 366.308 449.303 367.395 449.303 368.637C449.303 370.034 448.216 371.277 446.663 371.277C445.42 371.277 444.333 372.364 444.333 373.606V384.476C444.333 385.718 445.42 386.805 446.663 386.805C448.06 386.805 449.303 387.892 449.303 389.445C449.303 390.687 450.39 391.774 451.632 391.774H462.502C463.744 391.774 464.831 390.687 464.831 389.445C464.831 388.048 465.918 386.805 467.471 386.805C468.713 386.805 469.8 385.718 469.8 384.476V373.606C469.8 372.364 468.713 371.277 467.471 371.277C466.074 371.277 464.831 370.19 464.831 368.637C464.831 367.395 463.899 366.308 462.502 366.308Z" fill="#2F5373"></path>
<path d="M382.529 417.084H359.391C357.683 417.084 356.286 415.687 356.286 413.979C356.286 412.271 357.683 410.873 359.391 410.873H382.529C384.237 410.873 385.635 412.271 385.635 413.979C385.635 415.687 384.237 417.084 382.529 417.084Z" fill="#7D55FF"></path>
<path d="M425.547 406.837H402.409C400.701 406.837 399.304 405.44 399.304 403.732C399.304 402.024 400.701 400.626 402.409 400.626H425.547C427.255 400.626 428.653 402.024 428.653 403.732C428.653 405.44 427.255 406.837 425.547 406.837Z" fill="#7D55FF"></path>
<path d="M468.559 417.084H445.421C443.713 417.084 442.315 415.687 442.315 413.979C442.315 412.271 443.713 410.873 445.421 410.873H468.559C470.267 410.873 471.664 412.271 471.664 413.979C471.664 415.687 470.267 417.084 468.559 417.084Z" fill="#7D55FF"></path>
<path d="M669.965 115.831H614.684V171.113H669.965V115.831Z" fill="#C4B6FF"></path>
<path d="M790.001 42.8477H753.664V79.1845H790.001V42.8477Z" fill="#7D55FF"></path>
<path d="M790.001 100.459H753.664V136.796H790.001V100.459Z" fill="#7D55FF"></path>
<path d="M790.001 158.066H753.664V194.403H790.001V158.066Z" fill="#C4B6FF"></path>
<path d="M790.001 215.679H753.664V252.015H790.001V215.679Z" fill="#C4B6FF"></path>
<path d="M790.001 273.292H753.664V309.629H790.001V273.292Z" fill="#7D55FF"></path>
<path d="M669.965 206.208H614.684V261.49H669.965V206.208Z" fill="#7D55FF"></path>
<path d="M606.452 235.091H600.241C599.62 235.091 598.998 234.625 598.998 233.849C598.998 233.072 599.464 232.607 600.241 232.607H606.452C607.073 232.607 607.694 233.072 607.694 233.849C607.694 234.625 607.073 235.091 606.452 235.091ZM594.34 234.781C593.719 234.781 593.098 234.315 593.098 233.538V227.327C593.098 226.706 593.563 226.085 594.34 226.085C595.116 226.085 595.582 226.551 595.582 227.327V233.538C595.582 234.16 594.961 234.781 594.34 234.781ZM594.34 222.358C593.719 222.358 593.098 221.892 593.098 221.116V214.904C593.098 214.283 593.563 213.662 594.34 213.662C595.116 213.662 595.582 214.128 595.582 214.904V221.116C595.582 221.737 594.961 222.358 594.34 222.358ZM594.34 209.935C593.719 209.935 593.098 209.469 593.098 208.693V202.481C593.098 201.86 593.563 201.239 594.34 201.239C595.116 201.239 595.582 201.705 595.582 202.481V208.693C595.582 209.314 594.961 209.935 594.34 209.935ZM594.34 197.512C593.719 197.512 593.098 197.046 593.098 196.27V190.058C593.098 189.437 593.563 188.816 594.34 188.816C595.116 188.816 595.582 189.282 595.582 190.058V196.27C595.582 196.891 594.961 197.512 594.34 197.512ZM594.34 185.089C593.719 185.089 593.098 184.623 593.098 183.847V177.636C593.098 177.014 593.563 176.393 594.34 176.393C595.116 176.393 595.582 176.859 595.582 177.636V183.847C595.582 184.468 594.961 185.089 594.34 185.089ZM594.34 172.666C593.719 172.666 593.098 172.201 593.098 171.424V165.213C593.098 164.592 593.563 163.97 594.34 163.97C595.116 163.97 595.582 164.436 595.582 165.213V171.424C595.582 172.045 594.961 172.666 594.34 172.666ZM594.34 160.244C593.719 160.244 593.098 159.778 593.098 159.001V152.79C593.098 152.169 593.563 151.548 594.34 151.548C595.116 151.548 595.582 152.014 595.582 152.79V159.001C595.582 159.623 594.961 160.244 594.34 160.244ZM594.34 147.821C593.719 147.821 593.098 147.355 593.098 146.579V143.473C593.098 142.852 593.563 142.23 594.34 142.23H597.446C598.067 142.23 598.688 142.696 598.688 143.473C598.688 144.249 598.222 144.715 597.446 144.715H595.427V146.579C595.582 147.2 594.961 147.821 594.34 147.821ZM609.868 144.715H603.657C603.036 144.715 602.415 144.249 602.415 143.473C602.415 142.696 602.881 142.23 603.657 142.23H609.868C610.49 142.23 611.111 142.696 611.111 143.473C611.111 144.249 610.49 144.715 609.868 144.715Z" fill="#2F5373"></path>
<path d="M745.12 119.869H726.02V59.9287H742.791C743.412 59.9287 744.033 60.3946 744.033 61.1711C744.033 61.9475 743.567 62.4133 742.791 62.4133H728.349V117.695H745.12C745.741 117.695 746.362 118.161 746.362 118.937C746.362 119.714 745.741 119.869 745.12 119.869Z" fill="#2F5373"></path>
<path d="M715.462 178.414H709.251C708.63 178.414 708.009 177.948 708.009 177.172C708.009 176.395 708.474 175.93 709.251 175.93H715.462C716.083 175.93 716.705 176.395 716.705 177.172C716.705 177.948 716.083 178.414 715.462 178.414ZM703.039 178.414H700.4C699.778 178.414 699.157 177.948 699.157 177.327V173.756C699.157 173.135 699.623 172.513 700.4 172.513C701.021 172.513 701.642 172.979 701.642 173.6V175.93H703.195C703.816 175.93 704.437 176.395 704.437 177.172C704.437 177.948 703.661 178.414 703.039 178.414ZM700.244 168.631C699.623 168.631 699.002 168.165 699.002 167.544V161.333C699.002 160.712 699.468 160.09 700.089 160.09C700.71 160.09 701.331 160.556 701.331 161.177V167.389C701.487 168.165 700.865 168.631 700.244 168.631ZM700.244 156.208C699.623 156.208 699.002 155.743 699.002 155.121V148.91C699.002 148.289 699.468 147.668 700.089 147.668C700.71 147.668 701.331 148.134 701.331 148.755V154.966C701.487 155.743 700.865 156.208 700.244 156.208ZM700.244 143.785C699.623 143.785 699.002 143.32 699.002 142.699V136.487C699.002 135.866 699.468 135.245 700.089 135.245C700.71 135.245 701.331 135.711 701.331 136.332V142.543C701.487 143.32 700.865 143.785 700.244 143.785ZM700.244 131.363C699.623 131.363 699.002 130.897 699.002 130.276V124.064C699.002 123.443 699.468 122.822 700.089 122.822C700.71 122.822 701.331 123.288 701.331 123.909V130.12C701.331 130.897 700.865 131.363 700.244 131.363ZM700.244 118.94C699.623 118.94 699.002 118.474 699.002 117.853V111.641C699.002 111.02 699.468 110.399 700.089 110.399C700.71 110.399 701.331 110.865 701.331 111.486V117.698C701.331 118.474 700.865 118.94 700.244 118.94ZM700.244 106.517C699.623 106.517 699.002 106.051 699.002 105.43V99.2186C699.002 98.5975 699.468 97.9763 700.244 97.9763C700.865 97.9763 701.487 98.4422 701.487 99.0633V105.275C701.331 106.051 700.865 106.517 700.244 106.517ZM700.244 94.0941C699.623 94.0941 699.002 93.6284 699.002 93.0072V89.9015C699.002 89.5909 699.157 89.2804 699.313 89.1251C699.468 88.9698 699.778 88.8145 700.089 88.8145H703.195C703.816 88.8145 704.437 89.2803 704.437 90.0568C704.437 90.8332 703.971 91.299 703.195 91.299H701.176V93.1625C701.331 93.6283 700.865 94.0941 700.244 94.0941ZM715.773 90.9884H709.561C708.94 90.9884 708.319 90.5226 708.319 89.7462C708.319 88.9697 708.785 88.5039 709.561 88.5039H715.773C716.394 88.5039 717.015 88.9697 717.015 89.7462C717.015 90.5226 716.394 90.9884 715.773 90.9884Z" fill="#2F5373"></path>
<path d="M743.882 235.09H724.782L725.248 176.081H742.018C742.64 176.081 743.261 176.547 743.261 177.323C743.261 178.1 742.795 178.566 742.018 178.566H727.577L727.111 232.916H743.882C744.503 232.916 745.124 233.381 745.124 234.158C745.124 234.934 744.503 235.09 743.882 235.09Z" fill="#2F5373"></path>
<path d="M582.694 184.313H530.207C529.586 184.313 528.965 183.847 528.965 183.07C528.965 182.294 529.431 181.828 530.207 181.828H582.694C583.315 181.828 583.936 182.294 583.936 183.07C583.936 183.847 583.315 184.313 582.694 184.313Z" fill="#2F5373"></path>
<path d="M694.343 144.715H674.311C673.69 144.715 673.069 144.249 673.069 143.473C673.069 142.696 673.535 142.23 674.311 142.23H694.343C694.964 142.23 695.585 142.696 695.585 143.473C695.585 144.249 694.964 144.715 694.343 144.715Z" fill="#2F5373"></path>
<path d="M719.81 235.09H674.311C673.69 235.09 673.069 234.624 673.069 233.848C673.069 233.071 673.535 232.605 674.311 232.605H719.81C720.431 232.605 721.052 233.071 721.052 233.848C721.052 234.624 720.431 235.09 719.81 235.09Z" fill="#2F5373"></path>
<path d="M749.006 292.701H742.794C742.173 292.701 741.552 292.235 741.552 291.459C741.552 290.682 742.018 290.216 742.794 290.216H749.006C749.627 290.216 750.248 290.682 750.248 291.459C750.248 292.235 749.627 292.701 749.006 292.701ZM736.583 292.701H730.372C729.75 292.701 729.129 292.235 729.129 291.459C729.129 290.682 729.595 290.216 730.372 290.216H736.583C737.204 290.216 737.825 290.682 737.825 291.459C737.825 292.235 737.204 292.701 736.583 292.701ZM725.868 290.993C725.247 290.993 724.626 290.527 724.626 289.751V283.539C724.626 282.918 725.092 282.297 725.868 282.297C726.645 282.297 727.111 282.763 727.111 283.539V289.751C726.955 290.372 726.489 290.993 725.868 290.993ZM725.868 278.57C725.247 278.57 724.626 278.104 724.626 277.328V271.116C724.626 270.495 725.092 269.874 725.868 269.874C726.645 269.874 727.111 270.34 727.111 271.116V277.328C726.955 277.949 726.489 278.57 725.868 278.57ZM725.868 266.147C725.247 266.147 724.626 265.681 724.626 264.905V258.693C724.626 258.072 725.092 257.451 725.868 257.451C726.645 257.451 727.111 257.917 727.111 258.693V264.905C726.955 265.526 726.489 266.147 725.868 266.147ZM725.868 253.724C725.247 253.724 724.626 253.258 724.626 252.482V246.271C724.626 245.649 725.092 245.028 725.868 245.028C726.645 245.028 727.111 245.494 727.111 246.271V252.482C726.955 253.103 726.489 253.724 725.868 253.724ZM725.868 241.302C725.247 241.302 724.626 240.836 724.626 240.059V233.848C724.626 233.227 725.092 232.605 725.868 232.605C726.645 232.605 727.111 233.071 727.111 233.848V240.059C726.955 240.68 726.489 241.302 725.868 241.302Z" fill="#2F5373"></path>
<path d="M487.348 176.703L488.746 181.362H493.56L489.677 184.157L491.23 188.66L487.348 185.865L483.466 188.66L484.864 184.157L480.981 181.362H485.795L487.348 176.703Z" fill="#7D55FF"></path>
<path d="M771.831 48.2822L774.936 58.0653H785.185L776.955 63.9661L780.061 73.7491L771.831 67.6929L763.6 73.7491L766.706 63.9661L758.476 58.0653H768.725L771.831 48.2822Z" fill="#C4B6FF"></path>
<path d="M771.831 105.894L774.936 115.677H785.185L776.955 121.577L780.061 131.36L771.831 125.304L763.6 131.36L766.706 121.577L758.476 115.677H768.725L771.831 105.894Z" fill="#C4B6FF"></path>
<path d="M771.831 163.503L774.936 173.286H785.185L776.955 179.187L780.061 188.97L771.831 182.914L763.6 188.97L766.706 179.187L758.476 173.286H768.725L771.831 163.503Z" fill="#7D55FF"></path>
<path d="M771.831 221.112L774.936 230.895H785.185L776.955 236.951L780.061 246.579L771.831 240.523L763.6 246.579L766.706 236.951L758.476 230.895H768.725L771.831 221.112Z" fill="#7D55FF"></path>
<path d="M771.831 278.727L774.936 288.51H785.185L776.955 294.566L780.061 304.193L771.831 298.137L763.6 304.193L766.706 294.566L758.476 288.51H768.725L771.831 278.727Z" fill="#C4B6FF"></path>
<path d="M502.877 176.703L504.43 181.362H509.089L505.207 184.157L506.76 188.66L502.877 185.865L498.995 188.66L500.548 184.157L496.511 181.362H501.325L502.877 176.703Z" fill="#7D55FF"></path>
<path d="M518.405 176.703L519.958 181.362H524.771L520.889 184.157L522.287 188.66L518.405 185.865L514.523 188.66L516.075 184.157L512.193 181.362H517.007L518.405 176.703Z" fill="#7D55FF"></path>
<path opacity="0.3" d="M665.15 127.944H620.118V132.758H665.15V127.944Z" fill="white"></path>
<path opacity="0.3" d="M665.15 137.726H620.118V142.539H665.15V137.726Z" fill="white"></path>
<path opacity="0.3" d="M650.709 149.064H620.118V159.158H650.709V149.064Z" fill="white"></path>
<path opacity="0.3" d="M665.15 218.318H620.118V223.132H665.15V218.318Z" fill="white"></path>
<path opacity="0.3" d="M665.15 228.101H620.118V232.914H665.15V228.101Z" fill="white"></path>
<path opacity="0.3" d="M650.709 239.438H620.118V249.531H650.709V239.438Z" fill="white"></path>
</svg>
